<svg width="1200" height="800" xmlns="http://www.w3.org/2000/svg">
  <!-- Background gradient -->
  <defs>
    <linearGradient id="bg-gradient" x1="0%" y1="0%" x2="100%" y2="100%">
      <stop offset="0%" stop-color="#2c3e50" />
      <stop offset="100%" stop-color="#3498db" />
    </linearGradient>
    
    <!-- Pattern for tech background -->
    <pattern id="tech-pattern" x="0" y="0" width="100" height="100" patternUnits="userSpaceOnUse">
      <circle cx="50" cy="50" r="1" fill="#ffffff" opacity="0.3" />
      <circle cx="0" cy="0" r="1" fill="#ffffff" opacity="0.3" />
      <circle cx="0" cy="100" r="1" fill="#ffffff" opacity="0.3" />
      <circle cx="100" cy="0" r="1" fill="#ffffff" opacity="0.3" />
      <circle cx="100" cy="100" r="1" fill="#ffffff" opacity="0.3" />
    </pattern>
  </defs>
  
  <!-- Main background -->
  <rect width="100%" height="100%" fill="url(#bg-gradient)" />
  
  <!-- Tech pattern overlay -->
  <rect width="100%" height="100%" fill="url(#tech-pattern)" />
  
  <!-- Abstract network lines -->
  <g opacity="0.2">
    <!-- Horizontal lines -->
    <line x1="0" y1="200" x2="1200" y2="200" stroke="#ffffff" stroke-width="1" />
    <line x1="0" y1="400" x2="1200" y2="400" stroke="#ffffff" stroke-width="1" />
    <line x1="0" y1="600" x2="1200" y2="600" stroke="#ffffff" stroke-width="1" />
    
    <!-- Vertical lines -->
    <line x1="300" y1="0" x2="300" y2="800" stroke="#ffffff" stroke-width="1" />
    <line x1="600" y1="0" x2="600" y2="800" stroke="#ffffff" stroke-width="1" />
    <line x1="900" y1="0" x2="900" y2="800" stroke="#ffffff" stroke-width="1" />
    
    <!-- Diagonal lines -->
    <line x1="0" y1="0" x2="1200" y2="800" stroke="#ffffff" stroke-width="1" />
    <line x1="1200" y1="0" x2="0" y2="800" stroke="#ffffff" stroke-width="1" />
  </g>
  
  <!-- Connection nodes -->
  <g>
    <circle cx="300" cy="200" r="5" fill="#ffffff" opacity="0.7" />
    <circle cx="600" cy="200" r="5" fill="#ffffff" opacity="0.7" />
    <circle cx="900" cy="200" r="5" fill="#ffffff" opacity="0.7" />
    
    <circle cx="300" cy="400" r="5" fill="#ffffff" opacity="0.7" />
    <circle cx="600" cy="400" r="5" fill="#ffffff" opacity="0.7" />
    <circle cx="900" cy="400" r="5" fill="#ffffff" opacity="0.7" />
    
    <circle cx="300" cy="600" r="5" fill="#ffffff" opacity="0.7" />
    <circle cx="600" cy="600" r="5" fill="#ffffff" opacity="0.7" />
    <circle cx="900" cy="600" r="5" fill="#ffffff" opacity="0.7" />
  </g>
  
  <!-- Abstract brain visualization -->
  <g transform="translate(600, 400)" opacity="0.6">
    <!-- Brain outline -->
    <ellipse cx="0" cy="0" rx="150" ry="120" fill="none" stroke="#ffffff" stroke-width="2" />
    
    <!-- Neural connections -->
    <g stroke="#ffffff" stroke-width="1">
      <line x1="-120" y1="-50" x2="-20" y2="40" />
      <line x1="-100" y1="0" x2="0" y2="60" />
      <line x1="-80" y1="50" x2="20" y2="80" />
      <line x1="-60" y1="80" x2="40" y2="60" />
      <line x1="-40" y1="100" x2="60" y2="40" />
      
      <line x1="120" y1="-50" x2="20" y2="40" />
      <line x1="100" y1="0" x2="0" y2="60" />
      <line x1="80" y1="50" x2="-20" y2="80" />
      <line x1="60" y1="80" x2="-40" y2="60" />
      <line x1="40" y1="100" x2="-60" y2="40" />
      
      <line x1="0" y1="-100" x2="-50" y2="-20" />
      <line x1="0" y1="-100" x2="50" y2="-20" />
      <line x1="-30" y1="-90" x2="-70" y2="-30" />
      <line x1="30" y1="-90" x2="70" y2="-30" />
    </g>
    
    <!-- Neural nodes -->
    <g fill="#ffffff">
      <circle cx="-120" cy="-50" r="3" />
      <circle cx="-100" cy="0" r="3" />
      <circle cx="-80" cy="50" r="3" />
      <circle cx="-60" cy="80" r="3" />
      <circle cx="-40" cy="100" r="3" />
      
      <circle cx="120" cy="-50" r="3" />
      <circle cx="100" cy="0" r="3" />
      <circle cx="80" cy="50" r="3" />
      <circle cx="60" cy="80" r="3" />
      <circle cx="40" cy="100" r="3" />
      
      <circle cx="0" cy="-100" r="3" />
      <circle cx="-30" cy="-90" r="3" />
      <circle cx="30" cy="-90" r="3" />
      
      <circle cx="-50" cy="-20" r="3" />
      <circle cx="50" cy="-20" r="3" />
      <circle cx="-70" cy="-30" r="3" />
      <circle cx="70" cy="-30" r="3" />
      
      <circle cx="-20" cy="40" r="3" />
      <circle cx="0" cy="60" r="3" />
      <circle cx="20" cy="80" r="3" />
      <circle cx="40" cy="60" r="3" />
      <circle cx="60" cy="40" r="3" />
      <circle cx="-20" cy="80" r="3" />
      <circle cx="-40" cy="60" r="3" />
      <circle cx="-60" cy="40" r="3" />
    </g>
  </g>
</svg>