<svg width="600" height="400" xmlns="http://www.w3.org/2000/svg">
  <!-- Background -->
  <rect width="100%" height="100%" fill="#2c3e50" />
  
  <!-- Predictive Analytics Visualization -->
  <g>
    <!-- Graph/Chart visualization -->
    <g transform="translate(300, 200)">
      <!-- Coordinate system -->
      <g stroke="#fff" stroke-width="2">
        <!-- X and Y axis -->
        <line x1="-200" y1="100" x2="200" y2="100" />
        <line x1="-200" y1="100" x2="-200" y2="-100" />
        
        <!-- X axis ticks -->
        <line x1="-150" y1="100" x2="-150" y2="105" />
        <line x1="-100" y1="100" x2="-100" y2="105" />
        <line x1="-50" y1="100" x2="-50" y2="105" />
        <line x1="0" y1="100" x2="0" y2="105" />
        <line x1="50" y1="100" x2="50" y2="105" />
        <line x1="100" y1="100" x2="100" y2="105" />
        <line x1="150" y1="100" x2="150" y2="105" />
        
        <!-- Y axis ticks -->
        <line x1="-200" y1="50" x2="-205" y2="50" />
        <line x1="-200" y1="0" x2="-205" y2="0" />
        <line x1="-200" y1="-50" x2="-205" y2="-50" />
      </g>
      
      <!-- Grid lines -->
      <g stroke="#fff" stroke-width="0.5" opacity="0.2">
        <line x1="-200" y1="50" x2="200" y2="50" />
        <line x1="-200" y1="0" x2="200" y2="0" />
        <line x1="-200" y1="-50" x2="200" y2="-50" />
        
        <line x1="-150" y1="100" x2="-150" y2="-100" />
        <line x1="-100" y1="100" x2="-100" y2="-100" />
        <line x1="-50" y1="100" x2="-50" y2="-100" />
        <line x1="0" y1="100" x2="0" y2="-100" />
        <line x1="50" y1="100" x2="50" y2="-100" />
        <line x1="100" y1="100" x2="100" y2="-100" />
        <line x1="150" y1="100" x2="150" y2="-100" />
      </g>
      
      <!-- Data points (historical) -->
      <g fill="#3498db">
        <circle cx="-180" cy="20" r="4" />
        <circle cx="-160" cy="10" r="4" />
        <circle cx="-140" cy="30" r="4" />
        <circle cx="-120" cy="0" r="4" />
        <circle cx="-100" cy="-20" r="4" />
        <circle cx="-80" cy="-10" r="4" />
        <circle cx="-60" cy="-30" r="4" />
        <circle cx="-40" cy="-40" r="4" />
        <circle cx="-20" cy="-20" r="4" />
        <circle cx="0" cy="-50" r="4" />
      </g>
      
      <!-- Line connecting historical data -->
      <path d="M-180,20 L-160,10 L-140,30 L-120,0 L-100,-20 L-80,-10 L-60,-30 L-40,-40 L-20,-20 L0,-50" 
            fill="none" stroke="#3498db" stroke-width="2" />
      
      <!-- Predicted data points -->
      <g fill="#e74c3c">
        <circle cx="20" cy="-60" r="4" />
        <circle cx="40" cy="-70" r="4" />
        <circle cx="60" cy="-65" r="4" />
        <circle cx="80" cy="-80" r="4" />
        <circle cx="100" cy="-75" r="4" />
        <circle cx="120" cy="-90" r="4" />
        <circle cx="140" cy="-85" r="4" />
        <circle cx="160" cy="-95" r="4" />
        <circle cx="180" cy="-90" r="4" />
      </g>
      
      <!-- Line connecting predicted data -->
      <path d="M0,-50 L20,-60 L40,-70 L60,-65 L80,-80 L100,-75 L120,-90 L140,-85 L160,-95 L180,-90" 
            fill="none" stroke="#e74c3c" stroke-width="2" stroke-dasharray="5,5" />
      
      <!-- Confidence interval for prediction -->
      <path d="M0,-40 L20,-50 L40,-60 L60,-55 L80,-70 L100,-65 L120,-80 L140,-75 L160,-85 L180,-80 L180,-100 L160,-105 L140,-95 L120,-100 L100,-85 L80,-90 L60,-75 L40,-80 L20,-70 L0,-60 Z" 
            fill="#e74c3c" opacity="0.2" />
    </g>
    
    <!-- Labels -->
    <g fill="#fff" font-family="Arial, sans-serif" text-anchor="middle">
      <text x="300" y="350" font-size="24" font-weight="bold">Predictive Analytics</text>
      
      <text x="100" y="300" font-size="14">Historical Data</text>
      <text x="500" y="300" font-size="14">Predicted Trends</text>
      
      <text x="300" y="120" font-size="14">Confidence Interval</text>
      
      <!-- Axis labels -->
      <text x="300" y="330" font-size="12">Time</text>
      <text x="70" y="200" font-size="12" transform="rotate(-90, 70, 200)">Value</text>
    </g>
    
    <!-- Legend -->
    <g transform="translate(300, 50)">
      <!-- Historical data -->
      <line x1="-80" y1="0" x2="-40" y2="0" stroke="#3498db" stroke-width="2" />
      <circle cx="-60" cy="0" r="4" fill="#3498db" />
      
      <!-- Predicted data -->
      <line x1="20" y1="0" x2="60" y2="0" stroke="#e74c3c" stroke-width="2" stroke-dasharray="5,5" />
      <circle cx="40" cy="0" r="4" fill="#e74c3c" />
      
      <!-- Labels -->
      <text x="-20" y="5" font-size="12" fill="#fff" text-anchor="end">Historical</text>
      <text x="80" y="5" font-size="12" fill="#fff" text-anchor="end">Predicted</text>
    </g>
    
    <!-- Decorative elements -->
    <g opacity="0.1">
      <!-- Mathematical formulas -->
      <g fill="#fff" font-family="serif" font-size="12">
        <text x="50" y="50">y = β₀ + β₁x₁ + β₂x₂ + ... + βₙxₙ + ε</text>
        <text x="50" y="70">R² = 1 - SSres/SStot</text>
        <text x="50" y="90">MSE = (1/n) Σ(yᵢ - ŷᵢ)²</text>
      </g>
      
      <g fill="#fff" font-family="serif" font-size="12">
        <text x="400" y="50">P(A|B) = P(B|A)P(A)/P(B)</text>
        <text x="400" y="70">σ² = E[(X - μ)²]</text>
        <text x="400" y="90">H(X) = -Σ P(xᵢ) log P(xᵢ)</text>
      </g>
    </g>
  </g>
</svg>